#!OML:ASF I:\salsa\salsa 7_09\Patient 1\Session 1\dancerfemale.ASF
:FULLY-SPECIFIED
:DEGREES
2673
root -7.43633 15.3543 -4.2381 -2295.92 78.6632 586.776
lowerback 15.1251 5.34661 7.80369
upperback -2.57818 9.0624 3.0911
thorax -10.6292 3.97343 -3.10331
lowerneck 2.88493 -11.6012 -10.9378
upperneck 2.44241 -15.9378 9.50415
head 1.89878 -8.01574 4.20283
rclavicle 5.89521e-015 -2.5842e-014
rhumerus 31.2016 -24.8175 -63.4515
rradius 59.9626
rwrist -0.97996
rhand 2.45861 409.469
rfingers 7.12502
rthumb 27.9431 381.528
lclavicle 5.89521e-015 -2.5842e-014
lhumerus -52.0967 31.3227 20.2283
lradius 113.445
lwrist -16.1983
lhand -25.6862 -327.05
lfingers 7.12502
lthumb 0.848791 -2457.07
rfemur -20.2751 -16.3906 36.1436
rtibia 39.1258
rfoot -22.2102 -16.5061
rtoes 3.69913
lfemur -41.3085 -6.21364 -8.84494
ltibia 83.7666
lfoot -3.52419 6.21075
ltoes -17.1161
2674
root -7.51821 15.3515 -4.27111 -2296 78.4439 585.836
lowerback 13.9205 5.29334 6.61173
upperback -2.65814 8.79398 4.02057
thorax -10.3759 3.98962 -1.2934
lowerneck 2.77481 -11.2716 -11.5544
upperneck 2.49911 -15.484 8.93477
head 1.88822 -7.79822 4.14161
rclavicle -6.58474e-016 2.14687e-014
rhumerus 29.6424 -23.8361 -64.3662
rradius 62.2701
rwrist -0.0436562
rhand 1.35494 410.672
rfingers 7.12502
rthumb 26.8875 382.565
lclavicle -6.58474e-016 2.14687e-014
lhumerus -52.6327 31.7324 17.0475
lradius 112.829
lwrist -15.9029
lhand -25.078 -327.391
lfingers 7.12502
lthumb 1.43626 -2457.42
rfemur -21.6705 -15.7326 36.3196
rtibia 39.2824
rfoot -22.0991 -17.2746
rtoes 0.413969
lfemur -39.3738 -7.02548 -8.40932
ltibia 83.9857
lfoot -3.90714 7.06243
ltoes -17.7124
2675
root -7.59904 15.3562 -4.30905 -2295.26 78.2988 585.784
lowerback 13.391 5.39257 6.10514
upperback -3.21137 8.91674 4.47102
thorax -10.8395 4.08623 -0.541034
lowerneck 2.86042 -11.2631 -11.5303
upperneck 3.09267 -15.4639 8.01136
head 1.97445 -7.79652 3.85898
rclavicle -7.14382e-014 -4.21423e-014
rhumerus 26.9975 -23.4943 -65.4352
rradius 64.3042
rwrist 0.0692287
rhand 0.909166 411.598
rfingers 7.12502
rthumb 26.4609 383.426
lclavicle -7.14382e-014 -4.21423e-014
lhumerus -51.9863 31.3413 14.3692
lradius 112.068
lwrist -15.7497
lhand -24.4928 -327.602
lfingers 7.12502
lthumb 2.00138 -2457.63
rfemur -22.8525 -15.3167 36.5003
rtibia 39.2288
rfoot -21.816 -17.3615
rtoes -0.65011
lfemur -36.9689 -7.57277 -8.02423
ltibia 83.3438
lfoot -4.42963 7.96958
ltoes -20.5357
2676
root -7.68305 15.3643 -4.35198 -2293.63 78.1302 586.721
lowerback 12.8025 5.42566 5.76548
upperback -3.67156 8.98611 4.98089
thorax -11.1576 4.16709 0.209477
lowerneck 2.74 -11.2187 -11.102
upperneck 3.62438 -15.3222 6.26118
head 2.18354 -7.74675 3.64305
rclavicle -8.56513e-014 -1.10524e-013
rhumerus 24.6185 -23.0252 -66.8037
rradius 66.0219
rwrist -0.133727
rhand 0.96769 412.029
rfingers 7.12502
rthumb 26.5169 383.864
lclavicle -8.56513e-014 -1.10524e-013
lhumerus -51.2678 31.1625 11.864
lradius 111.271
lwrist -15.6629
lhand -24.0588 -327.984
lfingers 7.12502
lthumb 2.42058 -2458.02
rfemur -23.8617 -15.2189 36.7975
rtibia 39.0159
rfoot -21.0553 -16.1372
rtoes 3.90914
lfemur -34.2341 -7.87398 -7.58812
ltibia 81.9072
lfoot -5.86842 8.68896
ltoes -25.9148
2677
root -7.7726 15.3688 -4.39767 -2291.71 77.8757 588.121
lowerback 12.1702 5.43841 5.41693
upperback -3.94741 9.03964 5.66214
thorax -11.2781 4.26853 1.16605
lowerneck 2.69425 -11.4575 -12.1422
upperneck 4.40741 -15.6959 6.93472
head 2.37907 -7.93129 3.56308
rclavicle -1.06499e-013 -9.30312e-014
rhumerus 22.4924 -22.2706 -67.5804
rradius 67.2645
rwrist -0.423735
rhand 0.684124 411.888
rfingers 7.12502
rthumb 26.2455 383.683
lclavicle -1.06499e-013 -9.30312e-014
lhumerus -50.4177 31.2175 9.87763
lradius 110.594
lwrist -15.4881
lhand -23.6993 -328.257
lfingers 7.12502
lthumb 2.76772 -2458.3
rfemur -24.6128 -15.3093 37.1686
rtibia 38.69
rfoot -21.1767 -16.6566
rtoes -0.359336
lfemur -31.2083 -8.05984 -7.12706
ltibia 79.7223
lfoot -7.94702 8.99677
ltoes -25.9224
2678
root -7.86607 15.3689 -4.44375 -2289.58 77.4945 589.987
lowerback 11.7934 5.44987 5.21269
upperback -4.22305 9.15615 6.37481
thorax -11.5416 4.39277 2.0439
lowerneck 2.44092 -10.7496 -10.6515
upperneck 5.19259 -14.5565 4.12286
head 2.45111 -7.38396 2.83244
rclavicle -7.37491e-014 -2.46493e-014
rhumerus 19.9849 -21.4358 -67.8496
rradius 68.1417
rwrist -0.570618
rhand 0.0801307 411.297
rfingers 7.12502
rthumb 25.6671 383.008
lclavicle -7.37491e-014 -2.46493e-014
lhumerus -49.3061 31.1857 8.3201
lradius 110.049
lwrist -15.3374
lhand -23.484 -328.382
lfingers 7.12502
lthumb 2.9757 -2458.42
rfemur -25.1063 -15.433 37.6652
rtibia 38.3521
rfoot -21.1208 -15.8546
rtoes -0.382084
lfemur -27.9251 -8.12461 -6.56317
ltibia 76.82
lfoot -10.6842 8.52372
ltoes -25.7546
2679
root -7.96242 15.3714 -4.48859 -2287.86 77.1248 591.637
lowerback 11.4675 5.4308 4.98878
upperback -4.38762 9.22017 7.05965
thorax -11.7114 4.49925 2.91784
lowerneck 1.67047 -10.7321 -10.0727
upperneck 6.91359 -14.3262 2.3391
head 2.94042 -7.29446 2.07079
rclavicle 8.74653e-015 -6.52014e-014
rhumerus 17.3815 -20.6973 -68.2434
rradius 68.6071
rwrist -0.435326
rhand -0.499677 410.94
rfingers 7.12502
rthumb 25.1117 382.572
lclavicle 8.74653e-015 -6.52014e-014
lhumerus -48.0828 31.329 6.97883
lradius 109.623
lwrist -15.215
lhand -23.0879 -328.347
lfingers 7.12502
lthumb 3.35825 -2458.39
rfemur -25.4508 -15.618 38.0992
rtibia 38.0817
rfoot -20.6069 -15.3715
rtoes -1.33681
lfemur -24.4827 -8.18964 -6.07881
ltibia 73.2037
lfoot -14.8747 7.66805
ltoes -30.9884
2680
root -8.06703 15.3768 -4.53706 -2287.9 77.0367 591.669
lowerback 11.2427 5.40371 4.27737
upperback -4.40407 9.18347 7.72622
thorax -11.8432 4.59562 4.06033
lowerneck 0.753266 -10.7002 -9.49185
upperneck 8.70714 -13.9973 0.311766
head 3.47256 -7.17596 1.23446
rclavicle 6.17226e-014 -2.54444e-014
rhumerus 15.278 -20.1951 -68.9729
rradius 68.19
rwrist 0.225594
rhand -1.02434 411.555
rfingers 7.12502
rthumb 24.6089 383.117
lclavicle 6.17226e-014 -2.54444e-014
lhumerus -46.7599 31.7624 6.06816
lradius 109.298
lwrist -15.0729
lhand -22.5858 -328.074
lfingers 7.12502
lthumb 3.84311 -2458.13
rfemur -25.7321 -15.9818 38.0066
rtibia 37.8875
rfoot -19.9395 -15.0132
rtoes -1.58623
lfemur -21.092 -8.4321 -6.17865
ltibia 68.9997
lfoot -20.553 7.40597
ltoes -36.1056
2681
root -8.18046 15.3851 -4.58975 -2289.21 77.2556 590.503
lowerback 10.9981 5.36994 3.4123
upperback -4.28737 9.04403 8.14565
thorax -11.7744 4.635 5.05259
lowerneck 1.80994 -10.1887 -9.59587
upperneck 8.30304 -13.407 0.28462
head 3.11061 -6.87433 1.34696
rclavicle 8.51792e-014 6.99722e-014
rhumerus 13.7234 -20.1614 -70.2448
rradius 67.0234
rwrist 0.924056
rhand -0.930588 412.208
rfingers 7.12502
rthumb 24.6987 383.782
lclavicle 8.51792e-014 6.99722e-014
lhumerus -44.9989 32.4628 5.48975
lradius 108.906
lwrist -15.0579
lhand -22.2653 -327.875
lfingers 7.12502
lthumb 4.15259 -2457.94
rfemur -25.9315 -16.2363 37.3923
rtibia 37.7324
rfoot -19.8379 -14.8368
rtoes -0.426975
lfemur -17.9619 -8.6383 -6.82031
ltibia 64.5511
lfoot -26.2759 8.21673
ltoes -38.7526
2682
root -8.30108 15.4058 -4.64391 -2291.33 77.609 588.636
lowerback 11.0542 5.39264 2.40852
upperback -4.34381 8.98824 8.43725
thorax -12.089 4.71219 5.94312
lowerneck 1.68794 -10.0612 -9.18831
upperneck 9.70457 -13.0537 -0.957646
head 3.46462 -6.72998 0.851821
rclavicle -2.26615e-014 -3.81667e-014
rhumerus 11.7292 -20.2996 -71.0153
rradius 65.7025
rwrist 0.789257
rhand 0.0752417 411.842
rfingers 7.12502
rthumb 25.6624 383.551
lclavicle -2.26615e-014 -3.81667e-014
lhumerus -42.849 32.7873 5.47228
lradius 108.545
lwrist -15.0656
lhand -21.9934 -327.683
lfingers 7.12502
lthumb 4.4151 -2457.75
rfemur -25.9726 -16.3437 36.4934
rtibia 37.5557
rfoot -19.8535 -14.8264
rtoes 0.551449
lfemur -15.2106 -8.50893 -7.6283
ltibia 60.2592
lfoot -30.5146 8.9724
ltoes -42.3321
2683
root -8.43375 15.4375 -4.69959 -2294.43 77.9195 585.903
lowerback 9.56155 5.23933 0.714258
upperback -3.09819 8.45161 9.45589
thorax -10.1714 4.64626 8.29705
lowerneck 0.691148 -9.71236 -9.66133
upperneck 10.2558 -12.3467 -1.88862
head 3.77968 -6.43055 0.587876
rclavicle 4.09496e-014 3.18055e-014
rhumerus 12.2533 -19.8353 -71.5763
rradius 63.8167
rwrist 0.395762
rhand 1.58553 409.966
rfingers 7.12502
rthumb 27.1081 381.892
lclavicle 4.09496e-014 3.18055e-014
lhumerus -41.8457 35.0408 6.16897
lradius 108.391
lwrist -15.2851
lhand -21.948 -327.32
lfingers 7.12502
lthumb 4.45893 -2457.39
rfemur -25.8935 -16.4852 35.4641
rtibia 37.3596
rfoot -19.6713 -14.9334
rtoes 0.483836
lfemur -12.9842 -8.26977 -8.47841
ltibia 56.4607
lfoot -33.177 8.4737
ltoes -39.5443
2684
root -8.57895 15.4766 -4.75709 -2298.86 78.1659 581.945
lowerback 11.1218 5.55378 0.676972
upperback -3.88895 8.94982 8.8173
thorax -11.9601 4.85193 7.35616
lowerneck 1.18729 -9.77788 -9.79992
upperneck 12.3332 -12.3618 -1.67032
head 4.47317 -6.46066 0.634109
rclavicle 1.80894e-014 4.77083e-015
rhumerus 8.7126 -22.9041 -72.1165
rradius 62.5129
rwrist 6.72383
rhand 3.48436 408.513
rfingers 7.12502
rthumb 28.9233 380.736
lclavicle 1.80894e-014 4.77083e-015
lhumerus -37.0804 34.2895 8.10911
lradius 107.917
lwrist -15.3901
lhand -22.1496 -326.293
lfingers 7.12502
lthumb 4.26432 -2456.36
rfemur -25.6925 -16.5519 34.1996
rtibia 37.1778
rfoot -19.5264 -15.341
rtoes 0.296064
lfemur -11.3381 -7.73737 -9.48182
ltibia 53.3043
lfoot -34.4025 7.16836
ltoes -35.3848
2685
root -8.7356 15.515 -4.81664 -2305.12 78.3879 576.18
lowerback 11.3434 5.61917 -0.25525
upperback -3.52024 8.84135 8.76771
thorax -11.7935 4.84882 7.8444
lowerneck 0.883525 -9.64809 -10.1769
upperneck 13.7406 -12.0646 -1.64525
head 4.55052 -6.34477 0.614694
rclavicle 5.1684e-015 -1.06549e-013
rhumerus 7.4742 -24.4838 -72.7698
rradius 63.5942
rwrist 11.837
rhand 11.5037 401.502
rfingers 7.12502
rthumb 36.5511 375.323
lclavicle 5.1684e-015 -1.06549e-013
lhumerus -33.3023 35.2517 10.6997
lradius 107.497
lwrist -16.0532
lhand -22.4865 -325.341
lfingers 7.12502
lthumb 3.93897 -2455.4
rfemur -25.5053 -16.5381 32.5443
rtibia 37.0598
rfoot -19.3839 -15.9022
rtoes 0.758852
lfemur -10.2636 -6.74506 -10.8749
ltibia 50.8187
lfoot -34.6117 6.42486
ltoes -32.0466
